<svg width="18" height="15" viewBox="0 0 18 15" fill="none" xmlns="http://www.w3.org/2000/svg">
<path fill-rule="evenodd" clip-rule="evenodd" d="M0.470073 8.03009C0.329622 7.88946 0.250732 7.69884 0.250732 7.50009C0.250732 7.30134 0.329622 7.11072 0.470073 6.97009L6.47007 0.97009C6.53873 0.896403 6.62153 0.837301 6.71353 0.796309C6.80553 0.755318 6.90485 0.733276 7.00555 0.7315C7.10625 0.729723 7.20628 0.748247 7.29967 0.785968C7.39306 0.823689 7.47789 0.879834 7.54911 0.951053C7.62033 1.02227 7.67647 1.10711 7.7142 1.20049C7.75192 1.29388 7.77044 1.39391 7.76866 1.49461C7.76689 1.59532 7.74485 1.69463 7.70385 1.78663C7.66286 1.87863 7.60376 1.96143 7.53007 2.03009L2.81007 6.75009L17.0001 6.75009C17.199 6.75009 17.3898 6.82911 17.5304 6.96976C17.6711 7.11041 17.7501 7.30118 17.7501 7.50009C17.7501 7.699 17.6711 7.88977 17.5304 8.03042C17.3898 8.17107 17.199 8.25009 17.0001 8.25009H2.81007L7.53007 12.9701C7.60376 13.0388 7.66286 13.1216 7.70385 13.2136C7.74485 13.3056 7.76689 13.4049 7.76866 13.5056C7.77044 13.6063 7.75192 13.7063 7.7142 13.7997C7.67647 13.8931 7.62033 13.9779 7.54911 14.0491C7.47789 14.1203 7.39306 14.1765 7.29967 14.2142C7.20628 14.2519 7.10625 14.2705 7.00555 14.2687C6.90485 14.2669 6.80553 14.2449 6.71353 14.2039C6.62153 14.1629 6.53873 14.1038 6.47007 14.0301L0.470073 8.03009Z" fill="currentColor"/>
</svg>
