<svg width="33" height="32" viewBox="0 0 33 32" fill="none" xmlns="http://www.w3.org/2000/svg">
<path d="M16.5 22.3067C17.8929 22.3067 19.0702 21.8263 20.032 20.8654C20.9938 19.9045 21.4747 18.7272 21.4747 17.3334C21.4747 15.9396 20.9938 14.7623 20.032 13.8014C19.0702 12.8405 17.8929 12.3596 16.5 12.3587C15.1071 12.3578 13.9298 12.8387 12.968 13.8014C12.0062 14.764 11.5253 15.9414 11.5253 17.3334C11.5253 18.7254 12.0062 19.9027 12.968 20.8654C13.9298 21.828 15.1071 22.3089 16.5 22.308M16.5 20.9747C15.4644 20.9747 14.5987 20.6267 13.9027 19.9307C13.2067 19.2347 12.8587 18.3689 12.8587 17.3334C12.8587 16.2978 13.2067 15.432 13.9027 14.736C14.5987 14.04 15.4644 13.692 16.5 13.692C17.5356 13.692 18.4013 14.04 19.0973 14.736C19.7933 15.432 20.1413 16.2978 20.1413 17.3334C20.1413 18.3689 19.7933 19.2347 19.0973 19.9307C18.4013 20.6267 17.5356 20.9747 16.5 20.9747ZM6.65467 26.6667C6.04044 26.6667 5.528 26.4614 5.11733 26.0507C4.70667 25.64 4.50089 25.1272 4.5 24.512V10.1547C4.5 9.54049 4.70578 9.02804 5.11733 8.61737C5.52889 8.20671 6.04089 8.00093 6.65333 8.00004H10.5973L13.064 5.33337H19.936L22.4027 8.00004H26.3467C26.96 8.00004 27.472 8.20582 27.8827 8.61737C28.2933 9.02893 28.4991 9.54137 28.5 10.1547V24.5134C28.5 25.1267 28.2942 25.6392 27.8827 26.0507C27.4711 26.4623 26.9591 26.6676 26.3467 26.6667H6.65467ZM6.65467 25.3334H26.3467C26.5858 25.3334 26.7822 25.2565 26.936 25.1027C27.0898 24.9489 27.1667 24.7525 27.1667 24.5134V10.1534C27.1667 9.91426 27.0898 9.71782 26.936 9.56404C26.7822 9.41026 26.5858 9.33337 26.3467 9.33337H21.8173L19.3587 6.66671H13.6413L11.1827 9.33337H6.65333C6.41422 9.33337 6.21778 9.41026 6.064 9.56404C5.91022 9.71782 5.83333 9.91471 5.83333 10.1547V24.5134C5.83333 24.7525 5.91022 24.9489 6.064 25.1027C6.21778 25.2565 6.41467 25.3334 6.65467 25.3334Z" fill="currentColor"/>
</svg>
