<svg width="14" height="14" viewBox="0 0 14 14" fill="none" xmlns="http://www.w3.org/2000/svg">
<path d="M5.25 3.96881H6.40469V9.25475C6.40469 9.3235 6.46094 9.37975 6.52969 9.37975H7.46719C7.53594 9.37975 7.59219 9.3235 7.59219 9.25475V3.96881H8.75C8.85469 3.96881 8.9125 3.8485 8.84844 3.76725L7.09844 1.55162C7.08674 1.53668 7.0718 1.5246 7.05475 1.51629C7.03769 1.50798 7.01897 1.50366 7 1.50366C6.98103 1.50366 6.96231 1.50798 6.94525 1.51629C6.92819 1.5246 6.91326 1.53668 6.90156 1.55162L5.15156 3.76569C5.0875 3.8485 5.14531 3.96881 5.25 3.96881ZM12.7188 8.786H11.7812C11.7125 8.786 11.6562 8.84225 11.6562 8.911V11.3172H2.34375V8.911C2.34375 8.84225 2.2875 8.786 2.21875 8.786H1.28125C1.2125 8.786 1.15625 8.84225 1.15625 8.911V12.0047C1.15625 12.2813 1.37969 12.5047 1.65625 12.5047H12.3438C12.6203 12.5047 12.8438 12.2813 12.8438 12.0047V8.911C12.8438 8.84225 12.7875 8.786 12.7188 8.786Z" fill="currentColor" fill-opacity="0.25"/>
</svg>
